<svg width="24" height="24" viewBox="0 0 24 24" fill="none" xmlns="http://www.w3.org/2000/svg">
<path d="M9.49693 3.4111C6.72193 3.39517 3.94412 3.94548 1.23193 5.00157L1.40959 5.94845H17.0719L17.2594 5.00626C14.7141 3.94126 12.1079 3.42657 9.49693 3.4111V3.4111ZM20.4891 5.86407C19.1532 5.86407 18.0751 6.94688 18.0751 8.27813C18.0751 9.6047 19.1532 10.6875 20.4891 10.6875C21.8157 10.6875 22.8985 9.6047 22.8985 8.27813C22.8985 6.94688 21.8157 5.86407 20.4891 5.86407ZM20.4891 6.83907C21.2766 6.83907 21.9235 7.48595 21.9235 8.27813C21.9235 9.07032 21.2766 9.71251 20.4891 9.71251C19.7016 9.71251 19.0547 9.07032 19.0547 8.27813C19.0547 7.48595 19.7016 6.83907 20.4891 6.83907ZM1.53334 7.0547V8.0297H16.9454V7.0547H1.53334V7.0547ZM1.61443 9.1547V20.5594H2.59084V9.1547H1.61443V9.1547ZM15.8672 9.1547V20.5594H16.8469V9.1547H15.8672ZM19.9969 11.7563V20.55H20.9719V11.7563H19.9969ZM5.15162 16.0969C4.37959 16.0969 3.7524 16.725 3.7524 17.4984V18.9844H5.64381V20.5781H6.61881V18.9844H11.8641V20.5781H12.8391V18.9844H14.7282V17.4984C14.7282 16.725 14.1047 16.0969 13.3313 16.0969H5.15162V16.0969Z" fill="black"/>
</svg>
