<svg width="24" height="24" viewBox="0 0 24 24" fill="none" xmlns="http://www.w3.org/2000/svg">
<g clip-path="url(#clip0_44_1306)">
<path d="M7 9.00073C8.10457 9.00073 9 8.1053 9 7.00073C9 5.89616 8.10457 5.00073 7 5.00073C5.89543 5.00073 5 5.89616 5 7.00073C5 8.1053 5.89543 9.00073 7 9.00073Z" fill="#323232"/>
<path d="M20 13.0007V4.83073C20 3.27073 18.73 2.00073 17.17 2.00073C16.42 2.00073 15.7 2.30073 15.17 2.83073L13.92 4.08073C13.76 4.03073 13.59 4.00073 13.41 4.00073C13.01 4.00073 12.64 4.12073 12.33 4.32073L15.09 7.08073C15.29 6.77073 15.41 6.40073 15.41 6.00073C15.41 5.82073 15.38 5.66073 15.34 5.49073L16.59 4.24073C16.74 4.09073 16.95 4.00073 17.17 4.00073C17.63 4.00073 18 4.37073 18 4.83073V13.0007H11.15C10.85 12.7907 10.58 12.5507 10.33 12.2807L8.93 10.7307C8.74 10.5207 8.5 10.3507 8.24 10.2307C7.93 10.0807 7.59 10.0007 7.24 10.0007C6 10.0107 5 11.0107 5 12.2507V13.0007H2V19.0007C2 20.1007 2.9 21.0007 4 21.0007C4 21.5507 4.45 22.0007 5 22.0007H19C19.55 22.0007 20 21.5507 20 21.0007C21.1 21.0007 22 20.1007 22 19.0007V13.0007H20ZM20 19.0007H4V15.0007H20V19.0007Z" fill="#323232"/>
</g>
<defs>
<clipPath id="clip0_44_1306">
<rect width="24" height="24" fill="white" transform="translate(0 0.000732422)"/>
</clipPath>
</defs>
</svg>
