<svg enable-background="new 0 0 256 256" height="512" viewBox="0 0 256 256" width="512" xmlns="http://www.w3.org/2000/svg"><path d="m240.108 47.2h-224.216c-7.365 0-13.392 6.026-13.392 13.392v131.41c0 7.365 6.026 13.392 13.391 13.392h224.217c7.365 0 13.391-6.026 13.391-13.392v-131.41c.001-7.366-6.026-13.392-13.391-13.392z" fill="#edb311"/><path d="m212 67.5h-22.656c-4.532 0-8.521 3.399-8.825 7.921-.332 4.934 3.614 9.079 8.48 9.079h22.656c4.532 0 8.521-3.399 8.825-7.921.333-4.934-3.613-9.079-8.48-9.079z" fill="#fcdd86"/><path d="m253.5 94.588c-61.684.43-168.228 16.309-234.815 110.805h221.423c7.365 0 13.391-6.026 13.391-13.392v-97.413z" fill="#c7d7e5"/><path d="m23.024 205.393h217.085c7.365 0 13.391-6.026 13.391-13.392v-63.345c-41.247-5.288-159.452-11.453-230.476 76.737z" fill="#edf4fc"/><path d="m220.477 173.904h-22.886c-1.381 0-2.5-1.119-2.5-2.5s1.119-2.5 2.5-2.5h22.886c1.381 0 2.5 1.119 2.5 2.5s-1.12 2.5-2.5 2.5z"/><path d="m220.477 185.486h-22.886c-1.381 0-2.5-1.119-2.5-2.5s1.119-2.5 2.5-2.5h22.886c1.381 0 2.5 1.119 2.5 2.5s-1.12 2.5-2.5 2.5z"/><path d="m47.013 112.853c-.211-.282-.548-.45-.9-.45h-3.035c-.467 0-.879.282-1.05.72-2.459 6.384-12.838 5.634-12.838-3.42 0-9.124 10.394-9.829 12.838-3.483 0 0 .001.001.001.002.17.437.582.718 1.049.718h3.035c.352 0 .688-.168.9-.451s.278-.652.18-.989c-.741-2.545-2.11-4.586-4.069-6.068-7.124-5.381-19.157-1.385-19.157 10.27 0 14.821 19.524 16.844 23.224 4.14.1-.337.034-.707-.178-.989z"/><path d="m60.82 98.561c0-.001 0-.001 0 0-.164-.437-.588-.73-1.053-.73h-3.256c-.465 0-.888.293-1.052.728l-8.251 21.873c-.13.345-.083.733.128 1.037.21.303.556.485.925.485h3.099c.471 0 .896-.298 1.057-.742l1.596-4.41h8.22l1.597 4.411c.161.443.586.741 1.057.741h3.098c.37 0 .715-.181.925-.485s.258-.691.128-1.036zm-.223 13.746h-4.947l2.474-6.826z"/><path d="m81.74 112.375c7.72-2.362 7.357-14.955-3.512-14.955h-7.335c-.62 0-1.125.504-1.125 1.125v22.284c0 .62.504 1.125 1.125 1.125h2.877c.62 0 1.125-.504 1.125-1.125v-7.979h1.388l5.483 8.583c.207.326.562.52.948.52h3.258c.415 0 .794-.227.99-.592s.176-.806-.052-1.152zm.008-7.034c0 2.225-1.129 3.174-3.775 3.174h-3.079v-6.348h3.079c2.646 0 3.775.949 3.775 3.174z"/><path d="m96.401 97.42h-7.081c-.62 0-1.125.504-1.125 1.125v22.284c0 .62.504 1.125 1.125 1.125h7.081c5.262 0 9.285-2.079 11.324-5.852 1.817-3.354 2.333-8.969-.194-13.212-1.486-2.496-4.624-5.47-11.13-5.47zm7.631 12.25c0 4.869-2.716 7.442-7.853 7.442h-2.859v-14.914h2.858c5.138 0 7.854 2.584 7.854 7.472z"/><path d="m142.507 39.653c1.843.333 3.355-1.042 3.355-2.749 0-1.529-1.233-2.805-2.805-2.805-1.509 0-2.805 1.248-2.805 2.805 0 1.335.96 2.504 2.255 2.749z" fill="#f5c84c"/><path d="m159.943 26.334c3.995.744 7.144 3.829 7.904 7.743.038.197.312.197.351 0 .76-3.914 3.908-6.999 7.904-7.743.201-.037.201-.306 0-.344-3.995-.744-7.144-3.829-7.904-7.743-.038-.197-.313-.197-.351 0-.76 3.914-3.908 6.999-7.904 7.743-.2.037-.2.306 0 .344z" fill="#ef4460"/><path d="m77.895 227.273c2.721-.507 4.865-2.607 5.382-5.272.026-.134.213-.134.239 0 .517 2.665 2.661 4.766 5.382 5.272.137.025.137.208 0 .234-2.721.507-4.865 2.607-5.382 5.272-.026.134-.213.134-.239 0-.517-2.665-2.661-4.766-5.382-5.272-.136-.025-.136-.208 0-.234z" fill="#3caadc"/><path d="m149.606 218.753c1.335.252 2.255 1.45 2.255 2.749 0 1.482-1.186 2.805-2.805 2.805-1.59 0-2.805-1.305-2.805-2.805.001-1.686 1.521-3.09 3.355-2.749z" fill="#f5c84c"/><path d="m126.575 231.026h-2.07v2.07c0 1.549-1.256 2.805-2.805 2.805s-2.805-1.256-2.805-2.805v-2.07h-2.069c-1.549 0-2.805-1.256-2.805-2.805s1.256-2.805 2.805-2.805h2.069v-2.07c0-1.549 1.256-2.805 2.805-2.805s2.805 1.256 2.805 2.805v2.07h2.07c1.549 0 2.805 1.256 2.805 2.805 0 1.55-1.256 2.805-2.805 2.805z" fill="#87d147"/><path d="m240.108 207.893h-224.216c-8.763 0-15.892-7.129-15.892-15.892v-131.409c0-8.763 7.129-15.892 15.892-15.892h224.217c8.763 0 15.892 7.129 15.892 15.892v131.41c-.001 8.762-7.13 15.891-15.893 15.891zm-224.216-158.193c-6.006 0-10.892 4.886-10.892 10.892v131.41c0 6.006 4.886 10.892 10.892 10.892h224.217c6.006 0 10.892-4.886 10.892-10.892v-131.41c0-6.006-4.886-10.892-10.892-10.892z"/><path d="m32.072 67.341h-7.104c-.553 0-1 .448-1 1v22.36c0 .552.447 1 1 1h2.886c.553 0 1-.448 1-1v-8.007h3.219c2.716 0 4.851-.678 6.344-2.016 1.526-1.365 2.3-3.265 2.3-5.645 0-2.349-.746-4.242-2.218-5.628-1.456-1.37-3.617-2.064-6.427-2.064zm-3.218 4.41h2.965c1.482 0 2.526.276 3.103.821.568.538.845 1.343.845 2.461 0 1.079-.278 1.87-.85 2.418-.575.552-1.617.832-3.098.832h-2.965z"/><path d="m53.76 82.145c3.352-.961 5.289-3.465 5.289-7.144 0-4.442-2.846-7.661-8.611-7.661h-7.359c-.553 0-1 .448-1 1v22.36c0 .552.447 1 1 1h2.886c.553 0 1-.448 1-1v-8.135h1.592l5.541 8.673c.184.288.502.461.843.461h3.269c.368 0 .706-.202.881-.526.174-.324.156-.718-.046-1.025zm.339-6.985c0 4.716-5.256 2.872-7.135 3.313v-6.626c1.879.44 7.135-1.398 7.135 3.313z"/><path d="m73.906 67.341h-12.338c-1.884 0-.589 1.918-1 23.36 0 .552.447 1 1 1h12.338c.553 0 1-.448 1-1v-2.347c0-.552-.447-1-1-1h-8.452v-5.803h7.501c.553 0 1-.448 1-1v-2.22c0-.552-.447-1-1-1h-7.501v-5.644h8.452c.553 0 1-.448 1-1v-2.347c0-.552-.447-.999-1-.999z"/><path d="m77.617 67.341c-.553 0-1 .448-1 1v22.36c0 .552.447 1 1 1h2.886c.553 0 1-.448 1-1v-8.007h3.22c5.145 0 8.644-2.609 8.644-7.661-.001-10.378-12.66-7.085-15.75-7.692zm10.799 7.692c0 2.51-1.438 3.25-3.948 3.25h-2.965v-6.532h2.965c2.552 0 3.948.73 3.948 3.282z"/><path d="m106.497 68.401c-.146-.39-.52-.648-.937-.648h-3.268c-.416 0-.789.258-.936.647l-8.276 21.948c-.116.307-.073.652.113.922s.494.431.822.431h3.107c.421 0 .797-.264.94-.66l1.632-4.51h8.431l1.633 4.51c.144.396.52.66.94.66h3.107c.328 0 .636-.161.822-.431s.229-.614.114-.921zm.08 13.878h-5.332l2.667-7.356z"/><path d="m119.61 67.341h-2.886c-.553 0-1 .448-1 1v22.36c0 .552.447 1 1 1h2.886c.553 0 1-.448 1-1v-22.36c0-.553-.447-1-1-1z"/><path d="m131.346 67.341h-7.105c-.553 0-1 .448-1 1v22.36c0 .552.447 1 1 1h7.105c8.142 0 12.734-4.904 12.734-12.196 0-7.4-4.605-12.164-12.734-12.164zm7.786 12.164c0 4.771-2.578 7.596-8.009 7.596h-2.997v-15.223c1.21.307 11.006-1.905 11.006 7.627z"/><path d="m211.656 87h-22.656c-3.024 0-5.951-1.274-8.029-3.497-2.105-2.251-3.151-5.181-2.945-8.25.386-5.75 5.359-10.253 11.319-10.253h22.655c3.025 0 5.952 1.275 8.03 3.498 2.105 2.251 3.151 5.181 2.944 8.25-.385 5.748-5.357 10.252-11.318 10.252zm-22.311-17c-3.339 0-6.12 2.455-6.331 5.589-.112 1.672.459 3.27 1.609 4.5 1.152 1.232 2.707 1.911 4.377 1.911h22.656c3.339 0 6.119-2.455 6.33-5.588.112-1.672-.459-3.27-1.608-4.5-1.152-1.233-2.707-1.912-4.378-1.912z"/><path d="m240.108 207.893h-221.422c-.934 0-1.789-.52-2.219-1.349-.431-.829-.362-1.828.175-2.591 29.688-42.133 70.204-72.945 120.419-91.581 44.197-16.402 87.705-20.084 116.422-20.284.619-.021 1.307.257 1.779.726s.738 1.108.738 1.774v97.414c0 8.762-7.129 15.891-15.892 15.891zm-216.546-5h216.546c6.006 0 10.892-4.886 10.892-10.892v-94.887c-28.303.393-69.954 4.268-112.199 19.945-47.67 17.691-86.417 46.558-115.239 85.834z"/><path d="m240.108 207.893h-217.085c-.963 0-1.84-.553-2.255-1.421-.416-.868-.296-1.897.308-2.647 30.92-38.392 73.937-63.391 127.856-74.304 44.19-8.943 84.682-5.934 104.886-3.344 1.247.16 2.182 1.222 2.182 2.479v63.345c0 8.763-7.129 15.892-15.892 15.892zm-211.771-5h211.771c6.006 0 10.892-4.886 10.892-10.892v-61.137c-20.537-2.474-59.127-4.934-101.075 3.556-50.811 10.285-91.689 33.312-121.588 68.473z"/></svg>